<svg width="57" height="9" viewBox="0 0 57 9" fill="none" xmlns="http://www.w3.org/2000/svg">
<path d="M4.03024 4.0871L4.09772 4.09251L4.04631 4.13656L4.06202 4.20241L4.00424 4.16712L3.94646 4.20241L3.96217 4.13656L3.91075 4.09251L3.97824 4.0871L4.00424 4.02459L4.03024 4.0871Z" fill="#F1C644" stroke="#F1C644" stroke-width="3"/>
<path d="M16.0429 4.0871L16.1104 4.09251L16.059 4.13656L16.0747 4.20241L16.0169 4.16712L15.9592 4.20241L15.9749 4.13656L15.9234 4.09251L15.9909 4.0871L16.0169 4.02459L16.0429 4.0871Z" fill="#F1C644" stroke="#CCCCCC" stroke-width="3"/>
<path d="M28.0556 4.0871L28.1231 4.09251L28.0717 4.13656L28.0874 4.20241L28.0296 4.16712L27.9718 4.20241L27.9876 4.13656L27.9361 4.09251L28.0036 4.0871L28.0296 4.02459L28.0556 4.0871Z" fill="#F1C644" stroke="#CCCCCC" stroke-width="3"/>
<path d="M40.0683 4.0871L40.1358 4.09251L40.0844 4.13656L40.1001 4.20241L40.0423 4.16712L39.9845 4.20241L40.0003 4.13656L39.9488 4.09251L40.0163 4.0871L40.0423 4.02459L40.0683 4.0871Z" fill="#F1C644" stroke="#CCCCCC" stroke-width="3"/>
<path d="M52.0551 0.118652L53.1143 2.66512L55.8634 2.88551L53.7689 4.67971L54.4088 7.36239L52.0551 5.9248L49.7015 7.36239L50.3414 4.67971L48.2469 2.88551L50.996 2.66512L52.0551 0.118652Z" fill="#D4D4D4"/>
</svg>
